<?xml version="1.0" standalone="no"?>
<!DOCTYPE svg PUBLIC "-//W3C//DTD SVG 20010904//EN"
 "http://www.w3.org/TR/2001/REC-SVG-20010904/DTD/svg10.dtd">
<svg version="1.0" xmlns="http://www.w3.org/2000/svg"
 width="1000.000000pt" height="1778.000000pt" viewBox="0 0 1000.000000 1778.000000"
 preserveAspectRatio="xMidYMid meet">

<g transform="translate(0.000000,1778.000000) scale(0.100000,-0.100000)"
fill="#000000" stroke="none">
<path d="M5670 17765 c0 -8 5 -15 10 -15 6 0 10 7 10 15 0 8 -4 15 -10 15 -5
0 -10 -7 -10 -15z"/>
<path d="M7170 17655 c0 -8 5 -15 10 -15 6 0 10 7 10 15 0 8 -4 15 -10 15 -5
0 -10 -7 -10 -15z"/>
<path d="M280 17625 c0 -8 7 -15 15 -15 8 0 15 7 15 15 0 8 -7 15 -15 15 -8 0
-15 -7 -15 -15z"/>
<path d="M8580 17575 c0 -8 7 -15 15 -15 8 0 15 7 15 15 0 8 -7 15 -15 15 -8
0 -15 -7 -15 -15z"/>
<path d="M8360 17545 c0 -8 7 -15 15 -15 8 0 15 7 15 15 0 8 -7 15 -15 15 -8
0 -15 -7 -15 -15z"/>
<path d="M3031 17514 c0 -11 3 -14 6 -6 3 7 2 16 -1 19 -3 4 -6 -2 -5 -13z"/>
<path d="M3051 17514 c0 -11 3 -14 6 -6 3 7 2 16 -1 19 -3 4 -6 -2 -5 -13z"/>
<path d="M4470 17515 c0 -8 7 -15 15 -15 8 0 15 7 15 15 0 8 -7 15 -15 15 -8
0 -15 -7 -15 -15z"/>
<path d="M7610 17460 c0 -5 7 -10 15 -10 8 0 15 5 15 10 0 6 -7 10 -15 10 -8
0 -15 -4 -15 -10z"/>
<path d="M7250 17405 c0 -8 7 -15 15 -15 8 0 15 7 15 15 0 8 -7 15 -15 15 -8
0 -15 -7 -15 -15z"/>
<path d="M7860 17405 c0 -8 7 -15 15 -15 8 0 15 7 15 15 0 8 -7 15 -15 15 -8
0 -15 -7 -15 -15z"/>
<path d="M1280 17235 c0 -8 7 -15 15 -15 8 0 15 7 15 15 0 8 -7 15 -15 15 -8
0 -15 -7 -15 -15z"/>
<path d="M7470 17185 c0 -8 7 -15 15 -15 8 0 15 7 15 15 0 8 -7 15 -15 15 -8
0 -15 -7 -15 -15z"/>
<path d="M5220 17155 c0 -8 7 -15 15 -15 8 0 15 7 15 15 0 8 -7 15 -15 15 -8
0 -15 -7 -15 -15z"/>
<path d="M3920 17125 c0 -8 5 -15 10 -15 6 0 10 7 10 15 0 8 -4 15 -10 15 -5
0 -10 -7 -10 -15z"/>
<path d="M1640 17100 c0 -5 7 -10 15 -10 8 0 15 5 15 10 0 6 -7 10 -15 10 -8
0 -15 -4 -15 -10z"/>
<path d="M3810 17075 c0 -8 5 -15 10 -15 6 0 10 7 10 15 0 8 -4 15 -10 15 -5
0 -10 -7 -10 -15z"/>
<path d="M690 17015 c0 -8 7 -15 15 -15 8 0 15 7 15 15 0 8 -7 15 -15 15 -8 0
-15 -7 -15 -15z"/>
<path d="M3030 16985 c0 -8 7 -15 15 -15 8 0 15 7 15 15 0 8 -7 15 -15 15 -8
0 -15 -7 -15 -15z"/>
<path d="M3030 16905 c0 -8 7 -15 15 -15 8 0 15 7 15 15 0 8 -7 15 -15 15 -8
0 -15 -7 -15 -15z"/>
<path d="M8060 16875 c0 -8 5 -15 10 -15 6 0 10 7 10 15 0 8 -4 15 -10 15 -5
0 -10 -7 -10 -15z"/>
<path d="M2890 16685 c0 -8 7 -15 15 -15 8 0 15 7 15 15 0 8 -7 15 -15 15 -8
0 -15 -7 -15 -15z"/>
<path d="M7690 16685 c0 -8 7 -15 15 -15 8 0 15 7 15 15 0 8 -7 15 -15 15 -8
0 -15 -7 -15 -15z"/>
<path d="M170 16600 c0 -5 5 -10 10 -10 6 0 10 5 10 10 0 6 -4 10 -10 10 -5 0
-10 -4 -10 -10z"/>
<path d="M6360 16575 c0 -8 7 -15 15 -15 8 0 15 7 15 15 0 8 -7 15 -15 15 -8
0 -15 -7 -15 -15z"/>
<path d="M9690 16575 c0 -8 7 -15 15 -15 8 0 15 7 15 15 0 8 -7 15 -15 15 -8
0 -15 -7 -15 -15z"/>
<path d="M2810 16405 c0 -8 5 -15 10 -15 6 0 10 7 10 15 0 8 -4 15 -10 15 -5
0 -10 -7 -10 -15z"/>
<path d="M4970 16405 c0 -8 7 -15 15 -15 8 0 15 7 15 15 0 8 -7 15 -15 15 -8
0 -15 -7 -15 -15z"/>
<path d="M8580 16405 c0 -8 7 -15 15 -15 8 0 15 7 15 15 0 8 -7 15 -15 15 -8
0 -15 -7 -15 -15z"/>
<path d="M7580 16350 c0 -5 7 -10 15 -10 8 0 15 5 15 10 0 6 -7 10 -15 10 -8
0 -15 -4 -15 -10z"/>
<path d="M3360 16295 c0 -8 7 -15 15 -15 8 0 15 7 15 15 0 8 -7 15 -15 15 -8
0 -15 -7 -15 -15z"/>
<path d="M4920 16265 c0 -8 5 -15 10 -15 6 0 10 7 10 15 0 8 -4 15 -10 15 -5
0 -10 -7 -10 -15z"/>
<path d="M9390 16265 c0 -8 7 -15 15 -15 8 0 15 7 15 15 0 8 -7 15 -15 15 -8
0 -15 -7 -15 -15z"/>
<path d="M6780 16210 c0 -5 7 -10 15 -10 8 0 15 5 15 10 0 6 -7 10 -15 10 -8
0 -15 -4 -15 -10z"/>
<path d="M9780 16210 c0 -5 7 -10 15 -10 8 0 15 5 15 10 0 6 -7 10 -15 10 -8
0 -15 -4 -15 -10z"/>
<path d="M8890 15960 c0 -5 7 -10 15 -10 8 0 15 5 15 10 0 6 -7 10 -15 10 -8
0 -15 -4 -15 -10z"/>
<path d="M2830 15905 c0 -8 7 -15 15 -15 8 0 15 7 15 15 0 8 -7 15 -15 15 -8
0 -15 -7 -15 -15z"/>
<path d="M3720 15905 c0 -8 7 -15 15 -15 8 0 15 7 15 15 0 8 -7 15 -15 15 -8
0 -15 -7 -15 -15z"/>
<path d="M3920 15905 c0 -8 5 -15 10 -15 6 0 10 7 10 15 0 8 -4 15 -10 15 -5
0 -10 -7 -10 -15z"/>
<path d="M5250 15905 c0 -8 7 -15 15 -15 8 0 15 7 15 15 0 8 -7 15 -15 15 -8
0 -15 -7 -15 -15z"/>
<path d="M3560 15875 c0 -8 5 -15 10 -15 6 0 10 7 10 15 0 8 -4 15 -10 15 -5
0 -10 -7 -10 -15z"/>
<path d="M2280 15825 c0 -8 7 -15 15 -15 8 0 15 7 15 15 0 8 -7 15 -15 15 -8
0 -15 -7 -15 -15z"/>
<path d="M7970 15825 c0 -8 7 -15 15 -15 8 0 15 7 15 15 0 8 -7 15 -15 15 -8
0 -15 -7 -15 -15z"/>
<path d="M2190 15735 c0 -8 7 -15 15 -15 8 0 15 7 15 15 0 8 -7 15 -15 15 -8
0 -15 -7 -15 -15z"/>
<path d="M7530 15735 c0 -8 7 -15 15 -15 8 0 15 7 15 15 0 8 -7 15 -15 15 -8
0 -15 -7 -15 -15z"/>
<path d="M8470 15685 c0 -8 7 -15 15 -15 8 0 15 7 15 15 0 8 -7 15 -15 15 -8
0 -15 -7 -15 -15z"/>
<path d="M5720 15625 c0 -8 7 -15 15 -15 8 0 15 7 15 15 0 8 -7 15 -15 15 -8
0 -15 -7 -15 -15z"/>
<path d="M1190 15600 c0 -5 7 -10 15 -10 8 0 15 5 15 10 0 6 -7 10 -15 10 -8
0 -15 -4 -15 -10z"/>
<path d="M6140 15575 c0 -8 7 -15 15 -15 8 0 15 7 15 15 0 8 -7 15 -15 15 -8
0 -15 -7 -15 -15z"/>
<path d="M9000 15575 c0 -8 7 -15 15 -15 8 0 15 7 15 15 0 8 -7 15 -15 15 -8
0 -15 -7 -15 -15z"/>
<path d="M6170 15485 c0 -8 5 -15 10 -15 6 0 10 7 10 15 0 8 -4 15 -10 15 -5
0 -10 -7 -10 -15z"/>
<path d="M4670 15460 c0 -5 5 -10 10 -10 6 0 10 5 10 10 0 6 -4 10 -10 10 -5
0 -10 -4 -10 -10z"/>
<path d="M3860 15375 c0 -8 7 -15 15 -15 8 0 15 7 15 15 0 8 -7 15 -15 15 -8
0 -15 -7 -15 -15z"/>
<path d="M2500 15235 c0 -8 7 -15 15 -15 8 0 15 7 15 15 0 8 -7 15 -15 15 -8
0 -15 -7 -15 -15z"/>
<path d="M3503 15235 c0 -6 6 -12 12 -12 6 0 12 6 12 12 0 6 -6 12 -12 12 -6
0 -12 -6 -12 -12z"/>
<path d="M6250 15235 c0 -8 7 -15 15 -15 8 0 15 7 15 15 0 8 -7 15 -15 15 -8
0 -15 -7 -15 -15z"/>
<path d="M8971 15234 c0 -11 3 -14 6 -6 3 7 2 16 -1 19 -3 4 -6 -2 -5 -13z"/>
<path d="M8991 15234 c0 -11 3 -14 6 -6 3 7 2 16 -1 19 -3 4 -6 -2 -5 -13z"/>
<path d="M9530 15235 c0 -8 7 -15 15 -15 8 0 15 7 15 15 0 8 -7 15 -15 15 -8
0 -15 -7 -15 -15z"/>
<path d="M5750 15155 c0 -8 7 -15 15 -15 8 0 15 7 15 15 0 8 -7 15 -15 15 -8
0 -15 -7 -15 -15z"/>
<path d="M6440 15155 c0 -8 7 -15 15 -15 8 0 15 7 15 15 0 8 -7 15 -15 15 -8
0 -15 -7 -15 -15z"/>
<path d="M80 15125 c0 -8 7 -15 15 -15 8 0 15 7 15 15 0 8 -7 15 -15 15 -8 0
-15 -7 -15 -15z"/>
<path d="M1920 15125 c0 -8 5 -15 10 -15 6 0 10 7 10 15 0 8 -4 15 -10 15 -5
0 -10 -7 -10 -15z"/>
<path d="M1750 15095 c0 -8 7 -15 15 -15 8 0 15 7 15 15 0 8 -7 15 -15 15 -8
0 -15 -7 -15 -15z"/>
<path d="M5310 15070 c0 -5 5 -10 10 -10 6 0 10 5 10 10 0 6 -4 10 -10 10 -5
0 -10 -4 -10 -10z"/>
<path d="M5720 15070 c0 -5 7 -10 15 -10 8 0 15 5 15 10 0 6 -7 10 -15 10 -8
0 -15 -4 -15 -10z"/>
<path d="M6030 15070 c0 -5 7 -10 15 -10 8 0 15 5 15 10 0 6 -7 10 -15 10 -8
0 -15 -4 -15 -10z"/>
<path d="M920 14985 c0 -9 9 -15 25 -15 16 0 25 6 25 15 0 9 -9 15 -25 15 -16
0 -25 -6 -25 -15z"/>
<path d="M4420 14985 c0 -8 5 -15 10 -15 6 0 10 7 10 15 0 8 -4 15 -10 15 -5
0 -10 -7 -10 -15z"/>
<path d="M6390 14985 c0 -8 7 -15 15 -15 8 0 15 7 15 15 0 8 -7 15 -15 15 -8
0 -15 -7 -15 -15z"/>
<path d="M80 14935 c0 -8 7 -15 15 -15 8 0 15 7 15 15 0 8 -7 15 -15 15 -8 0
-15 -7 -15 -15z"/>
<path d="M330 14875 c0 -8 7 -15 15 -15 8 0 15 7 15 15 0 8 -7 15 -15 15 -8 0
-15 -7 -15 -15z"/>
<path d="M7640 14875 c0 -8 7 -15 15 -15 8 0 15 7 15 15 0 8 -7 15 -15 15 -8
0 -15 -7 -15 -15z"/>
<path d="M8610 14795 c0 -8 7 -15 15 -15 8 0 15 7 15 15 0 8 -7 15 -15 15 -8
0 -15 -7 -15 -15z"/>
<path d="M810 14655 c0 -8 5 -15 10 -15 6 0 10 7 10 15 0 8 -4 15 -10 15 -5 0
-10 -7 -10 -15z"/>
<path d="M610 14515 c0 -8 7 -15 15 -15 8 0 15 7 15 15 0 8 -7 15 -15 15 -8 0
-15 -7 -15 -15z"/>
<path d="M4330 14460 c0 -5 7 -10 15 -10 8 0 15 5 15 10 0 6 -7 10 -15 10 -8
0 -15 -4 -15 -10z"/>
<path d="M7750 14460 c0 -5 7 -10 15 -10 8 0 15 5 15 10 0 6 -7 10 -15 10 -8
0 -15 -4 -15 -10z"/>
<path d="M1690 14435 c0 -8 7 -15 15 -15 8 0 15 7 15 15 0 8 -7 15 -15 15 -8
0 -15 -7 -15 -15z"/>
<path d="M3940 14435 c0 -8 7 -15 15 -15 8 0 15 7 15 15 0 8 -7 15 -15 15 -8
0 -15 -7 -15 -15z"/>
<path d="M5360 14435 c0 -8 7 -15 15 -15 8 0 15 7 15 15 0 8 -7 15 -15 15 -8
0 -15 -7 -15 -15z"/>
<path d="M2140 14375 c0 -8 7 -15 15 -15 8 0 15 7 15 15 0 8 -7 15 -15 15 -8
0 -15 -7 -15 -15z"/>
<path d="M3690 14375 c0 -8 7 -15 15 -15 8 0 15 7 15 15 0 8 -7 15 -15 15 -8
0 -15 -7 -15 -15z"/>
<path d="M3360 14345 c0 -8 7 -15 15 -15 8 0 15 7 15 15 0 8 -7 15 -15 15 -8
0 -15 -7 -15 -15z"/>
<path d="M4390 14345 c0 -8 7 -15 15 -15 8 0 15 7 15 15 0 8 -7 15 -15 15 -8
0 -15 -7 -15 -15z"/>
<path d="M6170 14320 c0 -5 5 -10 10 -10 6 0 10 5 10 10 0 6 -4 10 -10 10 -5
0 -10 -4 -10 -10z"/>
<path d="M2470 14265 c0 -8 7 -15 15 -15 8 0 15 7 15 15 0 8 -7 15 -15 15 -8
0 -15 -7 -15 -15z"/>
<path d="M4920 14265 c0 -8 5 -15 10 -15 6 0 10 7 10 15 0 8 -4 15 -10 15 -5
0 -10 -7 -10 -15z"/>
<path d="M110 14185 c0 -8 7 -15 15 -15 8 0 15 7 15 15 0 8 -7 15 -15 15 -8 0
-15 -7 -15 -15z"/>
<path d="M8440 14185 c0 -8 7 -15 15 -15 8 0 15 7 15 15 0 8 -7 15 -15 15 -8
0 -15 -7 -15 -15z"/>
<path d="M3640 14155 c0 -8 7 -15 15 -15 8 0 15 7 15 15 0 8 -7 15 -15 15 -8
0 -15 -7 -15 -15z"/>
<path d="M9470 14155 c0 -8 7 -15 15 -15 8 0 15 7 15 15 0 8 -7 15 -15 15 -8
0 -15 -7 -15 -15z"/>
<path d="M4780 14125 c0 -8 7 -15 15 -15 8 0 15 7 15 15 0 8 -7 15 -15 15 -8
0 -15 -7 -15 -15z"/>
<path d="M7420 14095 c0 -8 5 -15 10 -15 6 0 10 7 10 15 0 8 -4 15 -10 15 -5
0 -10 -7 -10 -15z"/>
<path d="M5220 14070 c0 -5 -7 -10 -15 -10 -8 0 -15 -7 -15 -15 0 -8 7 -15 15
-15 8 0 15 7 15 15 0 8 7 15 15 15 8 0 15 5 15 10 0 6 -7 10 -15 10 -8 0 -15
-4 -15 -10z"/>
<path d="M690 14045 c0 -8 7 -15 15 -15 8 0 15 7 15 15 0 8 -7 15 -15 15 -8 0
-15 -7 -15 -15z"/>
<path d="M5500 14045 c0 -8 7 -15 15 -15 8 0 15 7 15 15 0 8 -7 15 -15 15 -8
0 -15 -7 -15 -15z"/>
<path d="M4313 13985 c0 -8 4 -12 9 -9 5 3 6 10 3 15 -9 13 -12 11 -12 -6z"/>
<path d="M970 13935 c0 -8 7 -15 15 -15 8 0 15 7 15 15 0 8 -7 15 -15 15 -8 0
-15 -7 -15 -15z"/>
<path d="M4420 13935 c0 -8 5 -15 10 -15 6 0 10 7 10 15 0 8 -4 15 -10 15 -5
0 -10 -7 -10 -15z"/>
<path d="M6420 13935 c0 -8 5 -15 10 -15 6 0 10 7 10 15 0 8 -4 15 -10 15 -5
0 -10 -7 -10 -15z"/>
<path d="M6390 13875 c0 -8 7 -15 15 -15 8 0 15 7 15 15 0 8 -7 15 -15 15 -8
0 -15 -7 -15 -15z"/>
<path d="M7280 13845 c0 -8 7 -15 15 -15 8 0 15 7 15 15 0 8 -7 15 -15 15 -8
0 -15 -7 -15 -15z"/>
<path d="M3310 13795 c0 -8 5 -15 10 -15 6 0 10 7 10 15 0 8 -4 15 -10 15 -5
0 -10 -7 -10 -15z"/>
<path d="M6690 13795 c0 -8 7 -15 15 -15 8 0 15 7 15 15 0 8 -7 15 -15 15 -8
0 -15 -7 -15 -15z"/>
<path d="M2220 13765 c0 -8 7 -15 15 -15 8 0 15 7 15 15 0 8 -7 15 -15 15 -8
0 -15 -7 -15 -15z"/>
<path d="M2736 13731 c-155 -52 -262 -180 -285 -341 -10 -74 -6 -115 15 -184
83 -267 418 -375 641 -207 251 190 217 569 -62 707 -64 32 -85 37 -162 40 -68
3 -101 0 -147 -15z"/>
<path d="M6986 13731 c-355 -118 -393 -603 -60 -768 170 -83 365 -46 494 93
82 89 120 218 101 340 -7 46 -7 72 0 80 7 9 5 14 -8 18 -10 4 -31 29 -48 57
-41 69 -103 125 -181 161 -87 41 -209 48 -298 19z"/>
<path d="M530 13655 c0 -8 7 -15 15 -15 8 0 15 7 15 15 0 8 -7 15 -15 15 -8 0
-15 -7 -15 -15z"/>
<path d="M640 13655 c0 -8 7 -15 15 -15 8 0 15 7 15 15 0 8 -7 15 -15 15 -8 0
-15 -7 -15 -15z"/>
<path d="M2420 13570 c0 -5 5 -10 10 -10 6 0 10 5 10 10 0 6 -4 10 -10 10 -5
0 -10 -4 -10 -10z"/>
<path d="M2190 13515 c0 -8 7 -15 15 -15 8 0 15 7 15 15 0 8 -7 15 -15 15 -8
0 -15 -7 -15 -15z"/>
<path d="M5560 13485 c0 -8 5 -15 10 -15 6 0 10 7 10 15 0 8 -4 15 -10 15 -5
0 -10 -7 -10 -15z"/>
<path d="M6530 13435 c0 -8 7 -15 15 -15 8 0 15 7 15 15 0 8 -7 15 -15 15 -8
0 -15 -7 -15 -15z"/>
<path d="M8110 13405 c0 -8 7 -15 15 -15 8 0 15 7 15 15 0 8 -7 15 -15 15 -8
0 -15 -7 -15 -15z"/>
<path d="M9530 13375 c0 -8 7 -15 15 -15 8 0 15 7 15 15 0 8 -7 15 -15 15 -8
0 -15 -7 -15 -15z"/>
<path d="M750 13265 c0 -8 7 -15 15 -15 8 0 15 7 15 15 0 8 -7 15 -15 15 -8 0
-15 -7 -15 -15z"/>
<path d="M360 13125 c0 -8 7 -15 15 -15 8 0 15 7 15 15 0 8 -7 15 -15 15 -8 0
-15 -7 -15 -15z"/>
<path d="M110 13095 c0 -8 7 -15 15 -15 8 0 15 7 15 15 0 8 -7 15 -15 15 -8 0
-15 -7 -15 -15z"/>
<path d="M9030 13015 c0 -8 7 -15 15 -15 8 0 15 7 15 15 0 8 -7 15 -15 15 -8
0 -15 -7 -15 -15z"/>
<path d="M940 12985 c0 -8 7 -15 15 -15 8 0 15 7 15 15 0 8 -7 15 -15 15 -8 0
-15 -7 -15 -15z"/>
<path d="M9140 12655 c0 -8 7 -15 15 -15 8 0 15 7 15 15 0 8 -7 15 -15 15 -8
0 -15 -7 -15 -15z"/>
<path d="M500 12595 c0 -8 7 -15 15 -15 8 0 15 7 15 15 0 8 -7 15 -15 15 -8 0
-15 -7 -15 -15z"/>
<path d="M9060 12570 c0 -5 5 -10 10 -10 6 0 10 5 10 10 0 6 -4 10 -10 10 -5
0 -10 -4 -10 -10z"/>
<path d="M5223 12405 c0 -8 6 -15 14 -15 7 0 13 7 13 15 0 8 -6 15 -13 15 -8
0 -14 -7 -14 -15z"/>
<path d="M420 12125 c0 -8 5 -15 10 -15 6 0 10 7 10 15 0 8 -4 15 -10 15 -5 0
-10 -7 -10 -15z"/>
<path d="M9330 11845 c0 -8 7 -15 15 -15 8 0 15 7 15 15 0 8 -7 15 -15 15 -8
0 -15 -7 -15 -15z"/>
<path d="M9390 11765 c0 -8 7 -15 15 -15 8 0 15 7 15 15 0 8 -7 15 -15 15 -8
0 -15 -7 -15 -15z"/>
<path d="M4720 11685 c0 -8 7 -15 15 -15 8 0 15 7 15 15 0 8 -7 15 -15 15 -8
0 -15 -7 -15 -15z"/>
<path d="M9190 11685 c0 -8 7 -15 15 -15 8 0 15 7 15 15 0 8 -7 15 -15 15 -8
0 -15 -7 -15 -15z"/>
<path d="M560 11570 c0 -5 5 -10 10 -10 6 0 10 5 10 10 0 6 -4 10 -10 10 -5 0
-10 -4 -10 -10z"/>
<path d="M6043 11538 c-28 -14 -30 -35 -3 -43 12 -4 20 -15 20 -28 0 -55 23
-259 36 -321 30 -142 65 -187 130 -166 47 16 181 106 195 132 29 54 -39 40
-140 -29 -62 -42 -65 -43 -83 -26 -16 16 -38 99 -38 144 0 40 29 52 107 45 72
-6 73 -6 73 19 0 36 -31 48 -121 43 -59 -2 -80 0 -84 10 -7 19 -6 102 2 131
l6 24 118 -7 c110 -6 119 -5 128 13 9 16 6 21 -17 29 -21 9 -289 45 -304 41
-2 0 -13 -5 -25 -11z"/>
<path d="M1715 11428 c-71 -39 -135 -149 -135 -231 0 -148 140 -253 289 -217
59 14 101 43 101 71 0 26 -43 25 -110 -1 -64 -25 -106 -25 -148 0 -77 47 -93
140 -43 245 41 89 104 121 146 75 29 -32 46 -26 33 11 -16 47 -87 73 -133 47z"/>
<path d="M6484 11425 c-7 -17 -5 -45 21 -262 15 -134 27 -182 48 -195 32 -20
35 41 12 232 -22 173 -36 234 -58 238 -9 2 -20 -4 -23 -13z"/>
<path d="M8083 11273 c2 -130 -17 -194 -65 -219 -27 -14 -32 -14 -55 1 -42 28
-58 79 -58 184 0 98 -8 116 -39 86 -30 -31 -16 -196 24 -275 24 -48 51 -70 91
-76 92 -14 169 121 169 296 0 73 -15 110 -46 110 -22 0 -22 -2 -21 -107z"/>
<path d="M9500 11345 c0 -8 7 -15 15 -15 8 0 15 7 15 15 0 8 -7 15 -15 15 -8
0 -15 -7 -15 -15z"/>
<path d="M3283 11330 c-37 -22 -58 -58 -73 -124 -21 -95 12 -174 90 -214 38
-20 55 -23 113 -18 71 5 117 25 117 51 0 21 -32 27 -81 16 -62 -15 -106 -13
-139 4 -41 21 -38 31 10 39 50 8 124 77 135 125 10 49 -2 98 -32 121 -33 26
-97 26 -140 0z m105 -52 c39 -39 -10 -118 -73 -118 -34 0 -35 1 -35 39 0 49
31 91 69 91 15 0 32 -5 39 -12z"/>
<path d="M7559 11323 c-95 -81 -91 -263 7 -324 69 -43 244 -27 244 22 0 28
-17 32 -84 19 -70 -14 -127 -8 -152 18 -16 15 -15 17 21 24 120 25 186 157
119 237 -22 27 -32 31 -74 31 -38 0 -55 -6 -81 -27z m116 -43 c15 -24 7 -71
-16 -96 -29 -31 -91 -31 -97 -1 -6 29 6 65 28 87 21 21 74 27 85 10z"/>
<path d="M2165 11291 c-135 -33 -208 -174 -142 -272 31 -47 79 -58 142 -34
136 51 187 195 100 282 -34 34 -47 37 -100 24z m79 -82 c31 -89 -86 -211 -163
-170 -16 9 -21 21 -21 49 0 32 7 45 48 84 78 75 118 86 136 37z"/>
<path d="M2327 11273 c-28 -27 29 -221 79 -271 47 -47 69 -34 77 45 10 91 25
133 47 133 23 0 36 -22 50 -86 20 -87 61 -109 86 -46 49 123 81 169 105 145 4
-4 17 -51 29 -103 12 -52 25 -99 29 -103 5 -5 19 -3 31 3 20 11 22 17 16 63
-16 126 -66 217 -119 217 -16 0 -37 -14 -61 -40 -20 -22 -36 -43 -36 -48 0 -4
-5 -14 -10 -22 -8 -12 -17 -6 -53 33 -38 41 -49 47 -84 47 -54 0 -58 -5 -79
-107 -2 -13 -9 -23 -14 -23 -10 0 -50 120 -50 151 0 19 -29 27 -43 12z"/>
<path d="M3555 11258 c-8 -32 30 -173 60 -224 14 -24 34 -48 45 -54 34 -18 47
-2 59 74 13 89 26 126 45 126 21 0 33 -20 47 -75 23 -100 67 -127 90 -57 17
54 55 126 74 142 26 21 40 -4 61 -105 19 -95 25 -106 55 -98 39 11 14 172 -37
240 -48 63 -101 52 -149 -32 -15 -25 -30 -45 -35 -45 -4 0 -15 12 -25 26 -33
51 -53 64 -100 64 -50 0 -54 -6 -71 -85 -5 -22 -13 -39 -19 -39 -9 2 -37 77
-50 137 -7 34 -42 38 -50 5z"/>
<path d="M6904 11265 c-9 -22 22 -152 50 -212 26 -54 63 -87 88 -78 9 4 19 32
26 79 14 89 27 126 46 126 21 0 33 -20 47 -75 15 -63 34 -95 58 -95 14 0 25
16 42 65 12 36 35 80 51 98 26 30 29 31 42 14 7 -9 21 -57 31 -107 19 -89 29
-105 61 -93 14 5 16 17 11 75 -7 81 -44 169 -81 193 -46 31 -76 12 -143 -91
-12 -18 -13 -18 -28 1 -49 63 -66 75 -110 75 -50 0 -58 -10 -70 -77 -4 -24
-11 -45 -16 -49 -11 -7 -32 41 -49 114 -9 40 -16 52 -31 52 -11 0 -22 -7 -25
-15z"/>
<path d="M360 10935 c0 -8 7 -15 15 -15 8 0 15 7 15 15 0 8 -7 15 -15 15 -8 0
-15 -7 -15 -15z"/>
<path d="M5000 10735 c0 -8 7 -15 15 -15 8 0 15 7 15 15 0 8 -7 15 -15 15 -8
0 -15 -7 -15 -15z"/>
<path d="M830 10710 c0 -5 7 -10 15 -10 8 0 15 5 15 10 0 6 -7 10 -15 10 -8 0
-15 -4 -15 -10z"/>
<path d="M4940 10485 c0 -8 7 -15 15 -15 8 0 15 7 15 15 0 8 -7 15 -15 15 -8
0 -15 -7 -15 -15z"/>
<path d="M9670 10405 c0 -8 5 -15 10 -15 6 0 10 7 10 15 0 8 -4 15 -10 15 -5
0 -10 -7 -10 -15z"/>
<path d="M610 10375 c0 -8 7 -15 15 -15 8 0 15 7 15 15 0 8 -7 15 -15 15 -8 0
-15 -7 -15 -15z"/>
<path d="M970 10295 c0 -8 7 -15 15 -15 8 0 15 7 15 15 0 8 -7 15 -15 15 -8 0
-15 -7 -15 -15z"/>
<path d="M3156 10144 c-12 -11 -16 -35 -16 -85 l0 -69 -64 0 c-108 0 -99 -36
15 -60 76 -16 85 -30 98 -145 11 -96 31 -138 70 -143 18 -3 21 1 21 32 0 19
-10 59 -21 88 -27 67 -39 117 -32 134 3 9 24 14 62 15 85 2 116 11 119 35 4
28 -15 34 -71 21 -87 -20 -128 19 -142 136 -8 60 -14 67 -39 41z"/>
<path d="M6634 10037 l7 -113 -69 -27 c-86 -34 -145 -77 -166 -121 -23 -48
-20 -83 9 -111 36 -37 131 -36 209 3 47 24 56 26 56 12 0 -19 19 -40 37 -40
19 0 16 51 -13 250 -14 96 -26 189 -27 205 -3 38 -14 55 -34 55 -14 0 -15 -14
-9 -113z m4 -225 c6 -63 -89 -126 -163 -108 -55 14 -15 88 67 126 24 11 54 19
68 18 20 -3 26 -9 28 -36z"/>
<path d="M6781 10111 c-12 -22 -5 -31 24 -31 12 0 25 3 28 6 10 10 -12 44 -28
44 -8 0 -19 -8 -24 -19z"/>
<path d="M7671 10111 c-12 -22 -5 -31 24 -31 12 0 25 3 28 6 10 10 -12 44 -28
44 -8 0 -19 -8 -24 -19z"/>
<path d="M2069 10070 c-82 -43 -127 -117 -115 -186 10 -51 44 -68 145 -74 57
-3 86 -9 89 -18 2 -7 -21 -38 -52 -69 -52 -52 -65 -83 -35 -83 38 0 125 90
143 148 19 59 -25 86 -124 76 -82 -8 -110 4 -110 46 0 39 34 73 93 95 58 21
69 41 38 67 -28 22 -27 22 -72 -2z"/>
<path d="M2360 10001 c-95 -50 -117 -229 -39 -309 41 -42 88 -55 171 -50 52 4
75 11 90 26 36 36 15 44 -88 37 -78 -6 -98 -5 -119 9 -32 21 -32 36 0 36 36 0
77 23 113 64 99 113 1 256 -128 187z m100 -60 c25 -47 -9 -106 -67 -117 -42
-8 -60 21 -43 71 20 59 87 87 110 46z"/>
<path d="M7048 10000 c-62 -33 -115 -118 -125 -198 -16 -136 100 -193 229
-113 27 17 51 31 53 31 2 0 9 -15 15 -34 6 -19 18 -40 27 -47 23 -20 45 13 33
49 -5 15 -14 72 -20 127 -12 115 -32 161 -80 187 -44 23 -85 22 -132 -2z m113
-57 c9 -10 14 -40 14 -77 0 -73 -23 -116 -72 -140 -71 -34 -123 -11 -123 53 1
109 130 226 181 164z"/>
<path d="M6813 9963 c-17 -6 -18 -186 -2 -248 12 -49 39 -78 66 -73 27 5 27
44 -2 170 -14 62 -28 123 -31 136 -4 22 -9 24 -31 15z"/>
<path d="M7703 9963 c-17 -6 -18 -186 -2 -248 12 -49 39 -78 66 -73 27 5 27
42 -2 169 -14 63 -28 124 -30 137 -5 22 -10 24 -32 15z"/>
<path d="M3555 9941 c-53 -24 -112 -91 -121 -135 -10 -54 4 -106 37 -139 27
-27 35 -29 82 -25 99 8 187 96 187 187 0 46 -11 73 -43 109 -26 28 -85 29
-142 3z m109 -47 c10 -9 16 -33 16 -61 0 -41 -5 -51 -44 -89 -35 -36 -50 -44
-79 -44 -102 0 -83 109 31 181 53 34 55 34 76 13z"/>
<path d="M7499 9941 c-14 -10 -35 -42 -49 -70 l-24 -52 -31 63 c-37 77 -60 83
-59 17 0 -87 102 -264 148 -257 20 3 21 7 17 101 -2 77 0 102 13 122 19 29 42
32 68 8 15 -13 23 -15 36 -7 25 16 25 37 2 67 -26 33 -84 37 -121 8z"/>
<path d="M2777 9890 c-19 -16 -40 -44 -47 -61 -15 -34 -23 -30 -40 24 -13 43
-43 48 -48 9 -5 -33 34 -154 59 -186 29 -37 63 -32 67 9 5 50 33 139 49 158
41 45 78 8 101 -104 15 -71 20 -84 37 -84 15 0 21 8 23 30 5 43 -17 145 -39
181 -37 61 -109 71 -162 24z"/>
<path d="M500 9735 c0 -8 7 -15 15 -15 8 0 15 7 15 15 0 8 -7 15 -15 15 -8 0
-15 -7 -15 -15z"/>
<path d="M9060 9595 c0 -8 5 -15 10 -15 6 0 10 7 10 15 0 8 -4 15 -10 15 -5 0
-10 -7 -10 -15z"/>
<path d="M810 9485 c0 -8 5 -15 10 -15 6 0 10 7 10 15 0 8 -4 15 -10 15 -5 0
-10 -7 -10 -15z"/>
<path d="M4920 9485 c0 -8 5 -15 10 -15 6 0 10 7 10 15 0 8 -4 15 -10 15 -5 0
-10 -7 -10 -15z"/>
<path d="M9110 9320 c0 -5 7 -10 15 -10 8 0 15 5 15 10 0 6 -7 10 -15 10 -8 0
-15 -4 -15 -10z"/>
<path d="M9500 8795 c0 -8 7 -15 15 -15 8 0 15 7 15 15 0 8 -7 15 -15 15 -8 0
-15 -7 -15 -15z"/>
<path d="M9890 8595 c0 -8 7 -15 15 -15 8 0 15 7 15 15 0 8 -7 15 -15 15 -8 0
-15 -7 -15 -15z"/>
<path d="M5220 8570 c0 -5 7 -10 15 -10 8 0 15 5 15 10 0 6 -7 10 -15 10 -8 0
-15 -4 -15 -10z"/>
<path d="M5220 8455 c0 -8 7 -15 15 -15 8 0 15 7 15 15 0 8 -7 15 -15 15 -8 0
-15 -7 -15 -15z"/>
<path d="M931 8234 c0 -11 3 -14 6 -6 3 7 2 16 -1 19 -3 4 -6 -2 -5 -13z"/>
<path d="M9080 8155 c0 -8 7 -15 15 -15 8 0 15 7 15 15 0 8 -7 15 -15 15 -8 0
-15 -7 -15 -15z"/>
<path d="M970 8070 c0 -5 7 -10 15 -10 8 0 15 5 15 10 0 6 -7 10 -15 10 -8 0
-15 -4 -15 -10z"/>
<path d="M9580 7845 c0 -8 7 -15 15 -15 8 0 15 7 15 15 0 8 -7 15 -15 15 -8 0
-15 -7 -15 -15z"/>
<path d="M3000 7820 c0 -5 7 -10 15 -10 8 0 15 5 15 10 0 6 -7 10 -15 10 -8 0
-15 -4 -15 -10z"/>
<path d="M3940 7820 c0 -5 7 -10 15 -10 8 0 15 5 15 10 0 6 -7 10 -15 10 -8 0
-15 -4 -15 -10z"/>
<path d="M4690 7795 c0 -8 7 -15 15 -15 8 0 15 7 15 15 0 8 -7 15 -15 15 -8 0
-15 -7 -15 -15z"/>
<path d="M8000 7765 c0 -8 7 -15 15 -15 8 0 15 7 15 15 0 8 -7 15 -15 15 -8 0
-15 -7 -15 -15z"/>
<path d="M1390 7735 c0 -8 7 -15 15 -15 8 0 15 7 15 15 0 8 -7 15 -15 15 -8 0
-15 -7 -15 -15z"/>
<path d="M1940 7705 c0 -8 7 -15 15 -15 8 0 15 7 15 15 0 8 -7 15 -15 15 -8 0
-15 -7 -15 -15z"/>
<path d="M3190 7705 c0 -8 7 -15 15 -15 8 0 15 7 15 15 0 8 -7 15 -15 15 -8 0
-15 -7 -15 -15z"/>
<path d="M6390 7655 c0 -8 7 -15 15 -15 8 0 15 7 15 15 0 8 -7 15 -15 15 -8 0
-15 -7 -15 -15z"/>
<path d="M8530 7655 c0 -8 7 -15 15 -15 8 0 15 7 15 15 0 8 -7 15 -15 15 -8 0
-15 -7 -15 -15z"/>
<path d="M8250 7625 c0 -8 7 -15 15 -15 8 0 15 7 15 15 0 8 -7 15 -15 15 -8 0
-15 -7 -15 -15z"/>
<path d="M1500 7515 c0 -8 7 -15 15 -15 8 0 15 7 15 15 0 8 -7 15 -15 15 -8 0
-15 -7 -15 -15z"/>
<path d="M2060 7515 c0 -8 5 -15 10 -15 6 0 10 7 10 15 0 8 -4 15 -10 15 -5 0
-10 -7 -10 -15z"/>
<path d="M1830 7405 c0 -8 7 -15 15 -15 8 0 15 7 15 15 0 8 -7 15 -15 15 -8 0
-15 -7 -15 -15z"/>
<path d="M8440 7375 c0 -8 7 -15 15 -15 8 0 15 7 15 15 0 8 -7 15 -15 15 -8 0
-15 -7 -15 -15z"/>
<path d="M9610 7375 c0 -8 7 -15 15 -15 8 0 15 7 15 15 0 8 -7 15 -15 15 -8 0
-15 -7 -15 -15z"/>
<path d="M3030 7345 c0 -8 7 -15 15 -15 8 0 15 7 15 15 0 8 -7 15 -15 15 -8 0
-15 -7 -15 -15z"/>
<path d="M9000 7345 c0 -8 7 -15 15 -15 8 0 15 7 15 15 0 8 -7 15 -15 15 -8 0
-15 -7 -15 -15z"/>
<path d="M7530 7320 c0 -5 7 -10 15 -10 8 0 15 5 15 10 0 6 -7 10 -15 10 -8 0
-15 -4 -15 -10z"/>
<path d="M8610 7265 c0 -8 7 -15 15 -15 8 0 15 7 15 15 0 8 -7 15 -15 15 -8 0
-15 -7 -15 -15z"/>
<path d="M2729 7228 c-69 -24 -170 -93 -189 -128 -6 -11 -18 -20 -26 -20 -9 0
-14 -6 -12 -12 3 -7 -6 -37 -20 -66 -92 -203 -7 -439 196 -539 74 -37 79 -38
186 -38 106 0 114 2 178 34 164 82 259 262 230 437 -23 139 -104 249 -227 310
-64 32 -85 37 -162 41 -74 3 -99 0 -154 -19z"/>
<path d="M6986 7231 c-161 -53 -262 -179 -287 -356 -14 -103 -6 -137 73 -312
11 -23 30 -53 44 -65 13 -13 24 -29 24 -36 0 -7 5 -10 10 -7 6 3 10 -1 10 -9
0 -8 5 -18 12 -22 7 -5 9 -2 4 7 -4 8 -1 6 7 -3 8 -10 17 -15 20 -11 4 3 7 1
7 -5 0 -12 78 -49 94 -44 4 2 15 -3 23 -9 16 -14 94 -16 114 -4 7 5 10 4 6 -2
-3 -5 0 -10 8 -10 8 0 11 5 8 10 -4 6 0 8 10 4 9 -3 18 -1 21 6 3 9 5 9 5 -1
1 -9 7 -8 25 4 14 8 27 15 30 15 18 -3 28 2 57 27 18 15 29 21 25 13 -6 -10
-5 -12 2 -7 7 4 12 14 12 23 0 9 3 14 6 10 8 -8 44 25 44 41 0 7 4 11 9 7 6
-3 8 4 6 16 -2 12 -2 19 2 15 10 -9 35 33 27 46 -5 8 -2 9 10 5 10 -4 15 -3
11 3 -3 5 5 31 19 58 105 207 19 465 -189 568 -64 32 -85 37 -162 40 -68 3
-101 0 -147 -15z"/>
<path d="M3690 7155 c0 -8 7 -15 15 -15 8 0 15 7 15 15 0 8 -7 15 -15 15 -8 0
-15 -7 -15 -15z"/>
<path d="M3420 7125 c0 -8 5 -15 10 -15 6 0 10 7 10 15 0 8 -4 15 -10 15 -5 0
-10 -7 -10 -15z"/>
<path d="M3670 7015 c0 -8 5 -15 10 -15 6 0 10 7 10 15 0 8 -4 15 -10 15 -5 0
-10 -7 -10 -15z"/>
<path d="M9000 6930 c0 -5 7 -10 15 -10 8 0 15 5 15 10 0 6 -7 10 -15 10 -8 0
-15 -4 -15 -10z"/>
<path d="M250 6905 c0 -8 7 -15 15 -15 8 0 15 7 15 15 0 8 -7 15 -15 15 -8 0
-15 -7 -15 -15z"/>
<path d="M3390 6875 c0 -8 7 -15 15 -15 8 0 15 7 15 15 0 8 -7 15 -15 15 -8 0
-15 -7 -15 -15z"/>
<path d="M4360 6875 c0 -8 7 -15 15 -15 8 0 15 7 15 15 0 8 -7 15 -15 15 -8 0
-15 -7 -15 -15z"/>
<path d="M6470 6875 c0 -8 7 -15 15 -15 8 0 15 7 15 15 0 8 -7 15 -15 15 -8 0
-15 -7 -15 -15z"/>
<path d="M5170 6845 c0 -8 5 -15 10 -15 6 0 10 7 10 15 0 8 -4 15 -10 15 -5 0
-10 -7 -10 -15z"/>
<path d="M4720 6705 c0 -8 7 -15 15 -15 8 0 15 7 15 15 0 8 -7 15 -15 15 -8 0
-15 -7 -15 -15z"/>
<path d="M5170 6515 c0 -8 5 -15 10 -15 6 0 10 7 10 15 0 8 -4 15 -10 15 -5 0
-10 -7 -10 -15z"/>
<path d="M4860 6375 c0 -8 7 -15 15 -15 8 0 15 7 15 15 0 8 -7 15 -15 15 -8 0
-15 -7 -15 -15z"/>
<path d="M9610 6345 c0 -8 7 -15 15 -15 8 0 15 7 15 15 0 8 -7 15 -15 15 -8 0
-15 -7 -15 -15z"/>
<path d="M440 6095 c0 -8 7 -15 15 -15 8 0 15 7 15 15 0 8 -7 15 -15 15 -8 0
-15 -7 -15 -15z"/>
<path d="M4810 5955 c0 -8 5 -15 10 -15 6 0 10 7 10 15 0 8 -4 15 -10 15 -5 0
-10 -7 -10 -15z"/>
<path d="M830 5820 c0 -5 7 -10 15 -10 8 0 15 5 15 10 0 6 -7 10 -15 10 -8 0
-15 -4 -15 -10z"/>
<path d="M6638 5729 c-22 -12 -24 -39 -4 -39 23 0 25 -9 36 -141 24 -280 71
-402 149 -379 71 20 211 120 211 150 0 39 -80 13 -164 -53 -29 -24 -42 -28
-55 -20 -24 15 -42 80 -39 137 3 48 5 50 38 59 23 6 48 5 74 -3 32 -10 41 -9
54 3 39 40 -21 71 -124 64 l-72 -5 -4 29 c-3 16 -3 54 0 85 l5 56 46 -6 c76
-10 185 -11 199 -3 22 14 13 35 -20 46 -36 11 -217 31 -276 31 -20 0 -45 -5
-54 -11z"/>
<path d="M220 5680 c0 -5 7 -10 15 -10 8 0 15 5 15 10 0 6 -7 10 -15 10 -8 0
-15 -4 -15 -10z"/>
<path d="M9670 5545 c0 -8 5 -15 10 -15 6 0 10 7 10 15 0 8 -4 15 -10 15 -5 0
-10 -7 -10 -15z"/>
<path d="M7057 5473 c-21 -21 21 -190 64 -258 21 -33 35 -45 53 -45 32 0 33 3
50 100 8 45 20 88 27 96 19 23 45 -8 60 -69 17 -75 26 -89 56 -85 21 2 29 14
50 68 24 65 56 110 79 110 11 0 54 -156 54 -196 0 -18 56 -19 63 -1 10 26 -14
144 -41 197 -47 96 -104 100 -162 12 -17 -25 -30 -50 -30 -55 0 -5 -22 14 -48
42 -41 43 -54 51 -84 51 -39 0 -68 -21 -68 -48 0 -30 -21 -93 -29 -88 -7 5
-29 76 -45 149 -6 26 -33 37 -49 20z"/>
<path d="M5060 5430 c0 -5 5 -10 10 -10 6 0 10 5 10 10 0 6 -4 10 -10 10 -5 0
-10 -4 -10 -10z"/>
<path d="M751 5204 c0 -11 3 -14 6 -6 3 7 2 16 -1 19 -3 4 -6 -2 -5 -13z"/>
<path d="M771 5204 c0 -11 3 -14 6 -6 3 7 2 16 -1 19 -3 4 -6 -2 -5 -13z"/>
<path d="M5030 5125 c0 -8 7 -15 15 -15 8 0 15 7 15 15 0 8 -7 15 -15 15 -8 0
-15 -7 -15 -15z"/>
<path d="M1516 5044 c-27 -15 -28 -18 -22 -67 3 -29 10 -133 16 -232 15 -275
20 -295 55 -241 11 16 16 44 14 83 -4 128 -3 130 38 144 52 17 145 113 163
167 19 60 5 109 -39 139 -29 19 -47 23 -115 23 -54 -1 -91 -6 -110 -16z m202
-56 c39 -39 -11 -133 -92 -173 l-51 -26 -3 97 c-2 71 1 100 10 106 20 12 123
9 136 -4z"/>
<path d="M9720 4955 c0 -8 7 -15 15 -15 8 0 15 7 15 15 0 8 -7 15 -15 15 -8 0
-15 -7 -15 -15z"/>
<path d="M3749 4873 c-1 -5 -2 -57 -3 -118 -1 -88 -5 -118 -21 -150 -38 -76
-93 -78 -135 -4 -22 38 -25 56 -25 136 0 50 -3 95 -7 99 -5 4 -17 -1 -28 -11
-23 -21 -26 -65 -9 -165 14 -89 41 -145 81 -170 105 -66 208 69 208 272 0 43
-5 88 -10 99 -10 18 -49 27 -51 12z"/>
<path d="M1895 4831 c-43 -25 -65 -63 -77 -129 -27 -146 65 -244 214 -228 65
6 108 27 108 51 0 21 -41 28 -86 16 -54 -15 -100 -14 -134 4 -41 21 -38 31 10
39 30 5 53 18 85 50 65 65 73 139 20 192 -30 30 -96 33 -140 5z m103 -53 c39
-39 -10 -118 -73 -118 -34 0 -35 1 -35 39 0 49 31 91 69 91 15 0 32 -5 39 -12z"/>
<path d="M2945 4838 c-68 -37 -122 -119 -132 -198 -12 -101 25 -150 114 -150
52 0 123 26 138 50 12 19 24 10 45 -29 11 -22 25 -43 31 -47 18 -11 30 18 24
56 -3 19 -10 77 -16 129 -11 107 -35 163 -79 186 -34 17 -96 19 -125 3z m103
-60 c17 -17 15 -133 -3 -168 -27 -52 -121 -82 -159 -51 -22 18 -20 86 3 137
33 73 122 119 159 82z"/>
<path d="M9280 4795 c0 -8 7 -15 15 -15 8 0 15 7 15 15 0 8 -7 15 -15 15 -8 0
-15 -7 -15 -15z"/>
<path d="M2374 4790 c-26 -10 -66 -62 -84 -108 l-13 -33 -31 63 c-19 39 -38
64 -50 66 -17 4 -18 -1 -14 -45 9 -96 112 -270 155 -261 16 3 18 14 14 105 -3
99 -3 102 23 128 25 25 28 26 45 11 20 -18 57 -21 66 -5 13 20 -5 59 -35 74
-32 17 -45 18 -76 5z"/>
<path d="M3990 4724 c-17 -15 -37 -39 -46 -56 -18 -35 -31 -29 -40 17 -7 40
-15 48 -38 39 -20 -8 -20 -31 0 -102 23 -80 50 -129 75 -137 29 -9 34 0 49 75
34 183 111 183 142 1 11 -64 14 -71 35 -71 21 0 23 5 23 45 0 75 -20 144 -52
181 -26 29 -37 34 -73 34 -32 0 -52 -7 -75 -26z"/>
<path d="M750 4680 c0 -5 7 -10 15 -10 8 0 15 5 15 10 0 6 -7 10 -15 10 -8 0
-15 -4 -15 -10z"/>
<path d="M9060 4655 c0 -8 5 -15 10 -15 6 0 10 7 10 15 0 8 -4 15 -10 15 -5 0
-10 -7 -10 -15z"/>
<path d="M5030 4595 c0 -8 7 -15 15 -15 8 0 15 7 15 15 0 8 -7 15 -15 15 -8 0
-15 -7 -15 -15z"/>
<path d="M6595 4238 c4 -57 8 -107 8 -111 1 -5 -25 -19 -59 -31 -116 -43 -179
-99 -191 -170 -5 -30 -1 -40 25 -66 27 -27 37 -30 90 -30 45 0 72 7 115 28
l56 28 6 -23 c4 -16 13 -23 30 -23 14 0 25 3 25 8 1 4 -14 116 -32 250 -33
239 -33 242 -57 242 l-24 0 8 -102z m11 -213 c16 -42 -42 -107 -112 -126 -106
-30 -98 67 11 124 39 21 94 22 101 2z"/>
<path d="M7110 4315 c-18 -21 -5 -45 25 -45 27 0 35 26 13 48 -16 16 -23 15
-38 -3z"/>
<path d="M9280 4315 c0 -8 7 -15 15 -15 8 0 15 7 15 15 0 8 -7 15 -15 15 -8 0
-15 -7 -15 -15z"/>
<path d="M9330 4290 c0 -5 7 -10 15 -10 8 0 15 5 15 10 0 6 -7 10 -15 10 -8 0
-15 -4 -15 -10z"/>
<path d="M6844 4209 c-63 -18 -114 -103 -114 -189 0 -96 59 -173 144 -185 86
-13 186 14 186 51 0 24 -27 28 -98 15 -55 -10 -74 -10 -106 1 -52 17 -56 34
-10 41 80 13 151 104 141 180 -9 70 -72 107 -143 86z m76 -78 c16 -31 12 -51
-19 -82 -20 -19 -40 -29 -60 -29 -29 0 -31 2 -31 39 0 50 31 91 70 91 19 0 33
-7 40 -19z"/>
<path d="M7416 4159 c-14 -16 -30 -37 -35 -46 -7 -14 -15 -11 -53 20 -45 37
-81 47 -94 26 -3 -6 21 -38 55 -73 l61 -62 0 -91 c0 -93 5 -108 34 -97 13 5
16 22 16 79 0 41 4 76 9 80 6 3 38 -27 72 -67 34 -40 64 -75 66 -78 6 -7 23
23 23 43 0 9 -33 52 -74 95 l-74 77 15 30 c9 17 24 40 35 52 11 12 17 26 13
32 -12 20 -43 11 -69 -20z"/>
<path d="M7135 4157 c-16 -13 -17 -25 -13 -123 6 -119 27 -189 59 -199 34 -11
52 14 45 60 -11 70 -60 275 -66 275 -4 0 -14 -6 -25 -13z"/>
<path d="M7695 4136 c-85 -40 -125 -97 -125 -177 0 -74 49 -129 115 -129 60 0
148 60 181 122 30 57 9 160 -40 193 -30 21 -74 18 -131 -9z m116 -57 c18 -34
4 -97 -28 -131 -64 -68 -144 -69 -151 -2 -4 36 29 80 92 125 47 35 71 37 87 8z"/>
<path d="M4750 3985 c0 -8 6 -15 13 -15 8 0 14 7 14 15 0 8 -6 15 -14 15 -7 0
-13 -7 -13 -15z"/>
<path d="M220 3955 c0 -8 7 -15 15 -15 8 0 15 7 15 15 0 8 -7 15 -15 15 -8 0
-15 -7 -15 -15z"/>
<path d="M9560 3875 c0 -8 5 -15 10 -15 6 0 10 7 10 15 0 8 -4 15 -10 15 -5 0
-10 -7 -10 -15z"/>
<path d="M2655 3735 c-5 -2 -22 -6 -38 -9 -37 -9 -104 -70 -129 -119 -11 -22
-25 -67 -32 -101 l-13 -61 -56 -3 c-32 -2 -57 -6 -57 -10 0 -4 7 -18 16 -30
12 -18 25 -22 64 -22 l49 0 40 -82 c21 -46 55 -118 75 -160 30 -68 38 -78 61
-78 40 0 32 43 -26 145 -48 83 -83 154 -77 155 2 1 47 4 100 9 98 8 131 21
121 47 -4 10 -25 14 -88 14 -45 0 -97 3 -114 6 -30 6 -31 9 -31 56 0 126 127
226 220 173 35 -20 49 -19 43 5 -12 45 -82 81 -128 65z"/>
<path d="M3269 3643 c-9 -10 -14 -40 -13 -85 l1 -68 -67 0 c-51 0 -69 -4 -74
-15 -7 -19 15 -30 93 -46 57 -11 65 -15 76 -43 7 -17 15 -62 19 -101 9 -90 32
-140 66 -140 36 0 36 27 0 125 -16 46 -30 96 -30 112 0 28 1 28 63 29 88 1
112 10 112 39 0 21 -4 25 -25 22 -85 -9 -119 -6 -138 11 -22 20 -42 87 -42
141 0 40 -18 48 -41 19z"/>
<path d="M9690 3625 c0 -8 7 -15 15 -15 8 0 15 7 15 15 0 8 -7 15 -15 15 -8 0
-15 -7 -15 -15z"/>
<path d="M1504 3616 c-10 -26 0 -51 21 -51 16 0 20 7 20 30 0 33 -30 49 -41
21z"/>
<path d="M720 3565 c0 -8 7 -15 15 -15 8 0 15 7 15 15 0 8 -7 15 -15 15 -8 0
-15 -7 -15 -15z"/>
<path d="M3026 3543 c-3 -4 -4 -46 0 -93 8 -105 -12 -187 -52 -219 -35 -27
-55 -26 -83 3 -36 38 -53 110 -46 194 6 68 6 72 -14 72 -34 0 -44 -34 -36
-123 17 -198 112 -292 208 -207 55 48 80 118 85 238 4 88 2 106 -13 122 -19
21 -36 25 -49 13z"/>
<path d="M3774 3536 c-3 -8 -1 -40 6 -70 25 -124 -35 -268 -106 -254 -49 9
-92 135 -75 223 10 54 4 69 -25 63 -16 -3 -19 -15 -22 -83 -8 -202 84 -323
194 -256 95 58 141 377 56 389 -13 2 -24 -3 -28 -12z"/>
<path d="M5030 3485 c0 -8 7 -15 15 -15 8 0 15 7 15 15 0 8 -7 15 -15 15 -8 0
-15 -7 -15 -15z"/>
<path d="M1811 3434 c-68 -34 -111 -97 -111 -161 0 -112 88 -165 188 -114 122
62 159 193 80 279 -30 31 -89 29 -157 -4z m123 -40 c22 -21 20 -82 -4 -122
-25 -40 -75 -72 -115 -72 -93 0 -65 112 43 181 53 34 55 34 76 13z"/>
<path d="M4047 3433 c-14 -16 -35 -48 -46 -72 l-20 -45 -24 55 c-28 64 -52 88
-69 71 -16 -16 2 -84 46 -177 40 -85 78 -128 109 -123 24 3 26 18 12 114 -10
67 7 122 41 130 16 4 31 1 43 -10 24 -21 51 -11 51 20 0 64 -94 88 -143 37z"/>
<path d="M1565 3428 c-3 -8 11 -77 31 -153 23 -88 38 -174 41 -231 5 -90 5
-91 -24 -124 -25 -28 -38 -34 -86 -38 -49 -4 -62 0 -110 27 -30 17 -57 31 -61
31 -11 0 -6 -30 9 -59 26 -51 147 -79 222 -50 34 13 80 55 99 91 19 36 18 159
-1 253 -25 117 -77 259 -98 263 -9 2 -19 -3 -22 -10z"/>
<path d="M9000 3290 c0 -5 7 -10 15 -10 8 0 15 5 15 10 0 6 -7 10 -15 10 -8 0
-15 -4 -15 -10z"/>
<path d="M110 3155 c0 -8 7 -15 15 -15 8 0 15 7 15 15 0 8 -7 15 -15 15 -8 0
-15 -7 -15 -15z"/>
<path d="M7283 2897 l7 -113 -65 -23 c-117 -42 -185 -108 -185 -183 0 -54 35
-78 115 -78 48 0 75 6 119 28 l56 29 0 -22 c0 -21 17 -35 41 -35 15 0 11 67
-16 251 -14 96 -27 190 -29 209 -2 19 -4 38 -5 43 0 4 -11 7 -23 7 -21 0 -21
-2 -15 -113z m5 -219 c4 -38 -22 -73 -73 -98 -50 -24 -93 -23 -109 2 -17 27
14 69 75 101 66 35 103 33 107 -5z"/>
<path d="M6524 2976 c-10 -26 0 -51 21 -51 16 0 20 7 20 30 0 33 -30 49 -41
21z"/>
<path d="M6945 2900 c-4 -6 -1 -41 5 -78 16 -89 -5 -183 -50 -224 -39 -36 -52
-35 -84 2 -36 43 -49 102 -42 187 6 76 -4 95 -39 69 -16 -11 -17 -26 -13 -112
8 -162 56 -244 141 -244 33 0 46 6 76 38 49 52 72 119 78 229 5 76 3 97 -11
118 -17 25 -50 33 -61 15z"/>
<path d="M750 2875 c0 -8 7 -15 15 -15 8 0 15 7 15 15 0 8 -7 15 -15 15 -8 0
-15 -7 -15 -15z"/>
<path d="M6255 2868 c-102 -56 -166 -211 -122 -298 15 -30 71 -60 112 -60 31
0 92 26 132 56 21 15 23 15 44 -30 11 -25 27 -46 35 -46 20 0 33 31 24 56 -5
12 -14 69 -20 126 -13 118 -31 163 -74 189 -34 21 -100 25 -131 7z m105 -67
c15 -29 12 -128 -4 -160 -29 -56 -108 -85 -153 -56 -23 16 -25 22 -21 71 5 59
37 113 85 145 37 25 79 24 93 0z"/>
<path d="M7534 2855 c-70 -42 -114 -125 -114 -215 0 -52 4 -64 29 -92 27 -30
34 -33 88 -33 49 0 67 5 108 32 l49 32 25 -44 c13 -25 30 -45 37 -45 14 0 30
43 21 57 -3 5 -11 56 -17 113 -14 130 -35 181 -83 203 -49 24 -95 21 -143 -8z
m126 -61 c15 -37 12 -109 -5 -150 -25 -60 -139 -94 -167 -51 -16 24 -8 95 15
138 43 81 136 119 157 63z"/>
<path d="M8010 2813 c-25 -13 -42 -33 -60 -70 -14 -29 -27 -53 -30 -53 -3 1
-17 28 -32 61 -21 46 -32 60 -45 57 -33 -7 -21 -78 31 -183 47 -95 79 -130
113 -123 14 3 17 12 16 38 -10 138 -8 168 11 189 23 25 43 27 66 6 24 -22 50
-9 50 25 0 54 -63 82 -120 53z"/>
<path d="M6584 2785 c-4 -8 -3 -25 0 -38 69 -239 92 -406 62 -452 -40 -60
-132 -71 -208 -25 -57 35 -68 37 -68 10 0 -62 75 -105 173 -98 76 5 125 32
156 89 41 71 25 238 -40 435 -25 75 -35 94 -51 94 -10 0 -21 -7 -24 -15z"/>
<path d="M9000 2735 c0 -8 7 -15 15 -15 8 0 15 7 15 15 0 8 -7 15 -15 15 -8 0
-15 -7 -15 -15z"/>
<path d="M9830 2680 c0 -5 7 -10 15 -10 8 0 15 5 15 10 0 6 -7 10 -15 10 -8 0
-15 -4 -15 -10z"/>
<path d="M4750 2655 c0 -8 7 -15 15 -15 8 0 15 7 15 15 0 8 -7 15 -15 15 -8 0
-15 -7 -15 -15z"/>
<path d="M5140 2655 c0 -8 7 -15 15 -15 8 0 15 7 15 15 0 8 -7 15 -15 15 -8 0
-15 -7 -15 -15z"/>
<path d="M9530 2515 c0 -8 7 -15 15 -15 8 0 15 7 15 15 0 8 -7 15 -15 15 -8 0
-15 -7 -15 -15z"/>
<path d="M720 1930 c0 -5 7 -10 15 -10 8 0 15 5 15 10 0 6 -7 10 -15 10 -8 0
-15 -4 -15 -10z"/>
<path d="M720 1595 c0 -8 7 -15 15 -15 8 0 15 7 15 15 0 8 -7 15 -15 15 -8 0
-15 -7 -15 -15z"/>
<path d="M5110 1515 c0 -8 7 -15 15 -15 8 0 15 7 15 15 0 8 -7 15 -15 15 -8 0
-15 -7 -15 -15z"/>
<path d="M8948 1333 c7 -3 16 -2 19 1 4 3 -2 6 -13 5 -11 0 -14 -3 -6 -6z"/>
<path d="M1250 1315 c0 -8 7 -15 15 -15 8 0 15 7 15 15 0 8 -7 15 -15 15 -8 0
-15 -7 -15 -15z"/>
<path d="M7110 1290 c0 -5 7 -10 15 -10 8 0 15 5 15 10 0 6 -7 10 -15 10 -8 0
-15 -4 -15 -10z"/>
<path d="M7580 1290 c0 -5 7 -10 15 -10 8 0 15 5 15 10 0 6 -7 10 -15 10 -8 0
-15 -4 -15 -10z"/>
<path d="M7890 1290 c0 -5 7 -10 15 -10 8 0 15 5 15 10 0 6 -7 10 -15 10 -8 0
-15 -4 -15 -10z"/>
<path d="M2610 1265 c0 -8 7 -15 15 -15 8 0 15 7 15 15 0 8 -7 15 -15 15 -8 0
-15 -7 -15 -15z"/>
<path d="M3640 1265 c0 -8 7 -15 15 -15 8 0 15 7 15 15 0 8 -7 15 -15 15 -8 0
-15 -7 -15 -15z"/>
<path d="M6030 1265 c0 -8 7 -15 15 -15 8 0 15 7 15 15 0 8 -7 15 -15 15 -8 0
-15 -7 -15 -15z"/>
<path d="M2830 1246 c0 -2 7 -6 15 -10 8 -3 15 -1 15 4 0 6 -7 10 -15 10 -8 0
-15 -2 -15 -4z"/>
<path d="M5140 1205 c0 -8 7 -15 15 -15 8 0 15 7 15 15 0 8 -7 15 -15 15 -8 0
-15 -7 -15 -15z"/>
<path d="M1670 1180 c0 -5 5 -10 10 -10 6 0 10 5 10 10 0 6 -4 10 -10 10 -5 0
-10 -4 -10 -10z"/>
<path d="M1640 1125 c0 -8 7 -15 15 -15 8 0 15 7 15 15 0 8 -7 15 -15 15 -8 0
-15 -7 -15 -15z"/>
<path d="M4890 1095 c0 -8 7 -15 15 -15 8 0 15 7 15 15 0 8 -7 15 -15 15 -8 0
-15 -7 -15 -15z"/>
<path d="M8500 1095 c0 -8 7 -15 15 -15 8 0 15 7 15 15 0 8 -7 15 -15 15 -8 0
-15 -7 -15 -15z"/>
<path d="M360 930 c0 -5 7 -10 15 -10 8 0 15 5 15 10 0 6 -7 10 -15 10 -8 0
-15 -4 -15 -10z"/>
<path d="M5830 875 c0 -8 7 -15 15 -15 8 0 15 7 15 15 0 8 -7 15 -15 15 -8 0
-15 -7 -15 -15z"/>
<path d="M7720 815 c0 -8 7 -15 15 -15 8 0 15 7 15 15 0 8 -7 15 -15 15 -8 0
-15 -7 -15 -15z"/>
<path d="M8530 815 c0 -8 7 -15 15 -15 8 0 15 7 15 15 0 8 -7 15 -15 15 -8 0
-15 -7 -15 -15z"/>
<path d="M580 790 c0 -5 7 -10 15 -10 8 0 15 5 15 10 0 6 -7 10 -15 10 -8 0
-15 -4 -15 -10z"/>
<path d="M5110 735 c0 -8 7 -15 15 -15 8 0 15 7 15 15 0 8 -7 15 -15 15 -8 0
-15 -7 -15 -15z"/>
<path d="M5920 680 c0 -5 5 -10 10 -10 6 0 10 5 10 10 0 6 -4 10 -10 10 -5 0
-10 -4 -10 -10z"/>
<path d="M920 655 c0 -8 5 -15 10 -15 6 0 10 7 10 15 0 8 -4 15 -10 15 -5 0
-10 -7 -10 -15z"/>
<path d="M750 625 c0 -8 7 -15 15 -15 8 0 15 7 15 15 0 8 -7 15 -15 15 -8 0
-15 -7 -15 -15z"/>
<path d="M1530 625 c0 -8 7 -15 15 -15 8 0 15 7 15 15 0 8 -7 15 -15 15 -8 0
-15 -7 -15 -15z"/>
<path d="M3440 565 c0 -8 7 -15 15 -15 8 0 15 7 15 15 0 8 -7 15 -15 15 -8 0
-15 -7 -15 -15z"/>
<path d="M5860 540 c0 -5 7 -10 15 -10 8 0 15 5 15 10 0 6 -7 10 -15 10 -8 0
-15 -4 -15 -10z"/>
<path d="M2560 515 c0 -8 5 -15 10 -15 6 0 10 7 10 15 0 8 -4 15 -10 15 -5 0
-10 -7 -10 -15z"/>
<path d="M5110 515 c0 -8 7 -15 15 -15 8 0 15 7 15 15 0 8 -7 15 -15 15 -8 0
-15 -7 -15 -15z"/>
<path d="M2750 455 c0 -8 7 -15 15 -15 8 0 15 7 15 15 0 8 -7 15 -15 15 -8 0
-15 -7 -15 -15z"/>
<path d="M3060 430 c0 -5 5 -10 10 -10 6 0 10 5 10 10 0 6 -4 10 -10 10 -5 0
-10 -4 -10 -10z"/>
<path d="M7310 430 c0 -5 5 -10 10 -10 6 0 10 5 10 10 0 6 -4 10 -10 10 -5 0
-10 -4 -10 -10z"/>
<path d="M2000 315 c0 -8 7 -15 15 -15 8 0 15 7 15 15 0 8 -7 15 -15 15 -8 0
-15 -7 -15 -15z"/>
<path d="M80 265 c0 -8 7 -15 15 -15 8 0 15 7 15 15 0 8 -7 15 -15 15 -8 0
-15 -7 -15 -15z"/>
<path d="M7140 235 c0 -8 7 -15 15 -15 8 0 15 7 15 15 0 8 -7 15 -15 15 -8 0
-15 -7 -15 -15z"/>
<path d="M6940 205 c0 -8 7 -15 15 -15 8 0 15 7 15 15 0 8 -7 15 -15 15 -8 0
-15 -7 -15 -15z"/>
<path d="M7720 155 c0 -10 10 -15 30 -15 20 0 30 5 30 15 0 10 -10 15 -30 15
-20 0 -30 -5 -30 -15z"/>
<path d="M2280 95 c0 -8 7 -15 15 -15 8 0 15 7 15 15 0 8 -7 15 -15 15 -8 0
-15 -7 -15 -15z"/>
<path d="M7750 95 c0 -8 7 -15 15 -15 8 0 15 7 15 15 0 8 -7 15 -15 15 -8 0
-15 -7 -15 -15z"/>
<path d="M9690 65 c0 -8 7 -15 15 -15 8 0 15 7 15 15 0 8 -7 15 -15 15 -8 0
-15 -7 -15 -15z"/>
<path d="M5580 40 c0 -5 7 -10 15 -10 8 0 15 5 15 10 0 6 -7 10 -15 10 -8 0
-15 -4 -15 -10z"/>
<path d="M4170 15 c0 -8 5 -15 10 -15 6 0 10 7 10 15 0 8 -4 15 -10 15 -5 0
-10 -7 -10 -15z"/>
<path d="M5890 15 c0 -8 7 -15 15 -15 8 0 15 7 15 15 0 8 -7 15 -15 15 -8 0
-15 -7 -15 -15z"/>
<path d="M8334 20 c2 -16 20 -14 24 2 3 10 2 10 -6 -1 -7 -9 -11 -10 -15 -2
-4 7 -5 8 -3 1z"/>
</g>
</svg>
